<svg xmlns="http://www.w3.org/2000/svg" viewBox="0 0 350.66 283.05"><defs><style>.cls-2{fill:#f4f4f4}.cls-3{fill:#fff}.cls-4{fill:#e0e0e0}.cls-5{fill:#5b5d60;opacity:.16;mix-blend-mode:multiply}.cls-6{fill:#979ca2}.cls-7{fill:#f5bd9e}.cls-8{fill:#004053}.cls-9{fill:#2c55a2}.cls-11{fill:#386ab2}.cls-12{fill:#274d8c}.cls-13{fill:#e3a686}.cls-16,.cls-18,.cls-20{fill:none;stroke-miterlimit:10}.cls-16{stroke:#e0e0e0}.cls-17{fill:#c1bebf}.cls-18{stroke:#c9e2f7}.cls-19{fill:#9ac4e1}.cls-20{stroke:#d9e8c4}.cls-21{fill:#bdd99b}.cls-29{fill:#dee2e4}</style></defs><g style="isolation:isolate"><g id="Warstwa_2" data-name="Warstwa 2"><g id="Warstwa_1-2" data-name="Warstwa 1"><rect class="cls-2" x="173.46" y="53.14" width="105.15" height="76.56" rx="2.98" ry="2.98"/><rect class="cls-3" x="174.99" y="54.68" width="102.08" height="73.48" rx="1.91" ry="1.91"/><path class="cls-4" d="M181.86 60.84h58.08v2.56h-58.08zM179.12 60.84h1.37v2.56h-1.37zM187.34 66.32h71.6v2.56h-71.6zM179.12 66.32h1.37v2.56h-1.37zM187.34 71.8h13.97v2.56h-13.97zM179.12 71.8h1.37v2.56h-1.37zM187.34 77.28h80.98v2.56h-80.98zM179.12 77.28h1.37v2.56h-1.37zM181.86 82.76h40.73v2.56h-40.73zM179.12 82.76h1.37v2.56h-1.37zM187.34 88.24h10.96v2.56h-10.96zM179.12 88.24h1.37v2.56h-1.37zM192.82 93.72h15.34v2.56h-15.34zM179.12 93.72h1.37v2.56h-1.37zM192.82 99.2h58.08v2.56h-58.08zM179.12 99.2h1.37v2.56h-1.37zM187.34 104.68h30.59v2.56h-30.59zM179.12 104.68h1.37v2.56h-1.37zM192.82 110.16h75.5v2.56h-75.5zM179.12 110.16h1.37v2.56h-1.37zM187.34 115.64h3.22v2.56h-3.22zM179.12 115.64h1.37v2.56h-1.37zM181.86 121.12h67.05v2.56h-67.05zM179.12 121.12h1.37v2.56h-1.37z"/><rect class="cls-2" x="104.64" y="118.39" width="41.89" height="30.51" rx="2.98" ry="2.98"/><rect class="cls-3" x="105.25" y="119.01" width="40.67" height="29.28" rx="1.91" ry="1.91"/><path class="cls-4" d="M107.99 121.46h23.14v1.02h-23.14zM106.89 121.46h.55v1.02h-.55zM110.17 123.64h28.53v1.02h-28.53zM106.89 123.64h.55v1.02h-.55zM110.17 125.83h5.57v1.02h-5.57zM106.89 125.83h.55v1.02h-.55zM110.17 128.01h32.27v1.02h-32.27zM106.89 128.01h.55v1.02h-.55zM107.99 130.19h16.23v1.02h-16.23zM106.89 130.19h.55v1.02h-.55zM110.17 132.38h4.37v1.02h-4.37zM106.89 132.38h.55v1.02h-.55zM112.35 134.56h6.11v1.02h-6.11zM106.89 134.56h.55v1.02h-.55zM112.35 136.74h23.14v1.02h-23.14zM106.89 136.74h.55v1.02h-.55zM110.17 138.93h12.19v1.02h-12.19zM106.89 138.93h.55v1.02h-.55zM112.35 141.11h30.08v1.02h-30.08zM106.89 141.11h.55v1.02h-.55zM110.17 143.29h1.28v1.02h-1.28zM106.89 143.29h.55v1.02h-.55zM107.99 145.48h26.72v1.02h-26.72zM106.89 145.48h.55v1.02h-.55z"/><ellipse class="cls-5" cx="241.65" cy="258.99" rx="24.06" ry="41.54" transform="rotate(-90 240.94 258.96)"/><path class="cls-6" d="M252.9 243.91a11.23 11.23 0 01-3.35 7.72c-3.61 3.86-5.92 8.24-4.12 11.59s9.78 2.31 12.87-.26 2.58-5.15 5.41-8.75 3.35-5.67 2.32-9.53-8.5-2.83-13.13-.77z"/><path class="cls-7" d="M191.42 143.43s2.89 4.72 1.24 6.39-6.83 1.82-8.69 1.13-4.49-2.54-4.82-5.1 2.28-4.87 4.65-5.07 1.29 2.74 1.29 2.74 4.34-1.8 6.33-.09z"/><path class="cls-6" d="M225.86 240.68a10.84 10.84 0 01-4.38 6.69c-3.86 2.84-5.92 5.67-5.4 10.05s7.72 3.86 11.33 2.06 2.83-3.61 5.4-6.44 4.38-3.09 4.89-6.18-.25-6.44-1.8-7-4.9-2.78-10.04.82z"/><path class="cls-8" d="M223.8 157.78s.86 71.57 1.89 84.27c.34 3.09 7.9 6.18 11 1.72 3.09-5.84 1.21-65.74 5-76.72-1.07-7.9-14.11-10.65-17.89-9.27z"/><path class="cls-9" d="M225 100.58s-5.57 14.56-11 29.05c-4.64 12.49-24.53 11.37-24.53 11.37a84.67 84.67 0 013.65 9.87s12.4.94 22.88-5.82c6.19-4 9.91-16.35 9.22-17-1.84-1.88 1.85-27.24-.22-27.47z"/><path d="M224.49 160.52c.32 1.2 4.46 18.35 15.45 24.53 9.26 4.8 10.64 9.46 11.32 16.67s.69 42.53 1.38 43.9 6.52 6.87 13.73 0c.69-19.91 1-80-.34-88.19s-42.57-.68-41.54 3.09z" fill="#133944"/><path class="cls-7" d="M269.89 163.57a50 50 0 00-.86 7c0 2.58 2.58.17 2.58.17s.69 6.7 2.06 7.73 4.63-1.2 5.32-6.53-1-11.32-3.43-12.53-5.67 4.16-5.67 4.16z"/><path class="cls-9" d="M252 92.21s16.48 11 18.2 14.76 2.4 14.42-.69 21.63-1 33.3-2.06 38.45-14.76 7.2-23.34 5.83-20.22-2.8-20.22-12.75.31-32.91-.38-37.37-.37-14.59 1.53-22.18c.81-3.43 11.02-8.99 26.96-8.37z"/><path class="cls-11" d="M250.78 173.27a37 37 0 01-6.72-.39c-8.58-1.37-20.22-2.79-20.22-12.75s.31-32.91-.38-37.37-.37-14.59 1.52-22.18c.85-3.34 10.54-8.69 25.74-8.4-13.74.3-22.41 5.24-23.21 8.4-1.89 7.59-2.23 17.71-1.54 22.18s.38 27.41.38 37.37 11.64 11.38 20.22 12.75a38 38 0 004.21.39z"/><path class="cls-12" d="M269.46 128.6c-3.09 7.2-1 33.31-2.06 38.44-.57 2.87-5.08 4.79-10.45 5.68 3.45-15.28 8.88-25.89 3.45-50.78-3.19-14.64 3.91-9.35 1.53-12.23 3-.4 6.5-6.52 8.22-2.75s2.39 14.43-.69 21.64z"/><path class="cls-9" d="M267.06 103.54s11.32 8.58 12.35 45.65c0 21.63-.34 14.64-.34 14.64s-6.52 6.18-9.95-.34c0-7.9 1.37-19.79-2.06-33.52s-6.18-15.1-6.18-15.1-2.06-10.3 6.18-11.33z"/><path class="cls-13" d="M237.88 90.49a2 2 0 010 .52c-.14 1.19-.63 4.23-.7 5.49s1.37 3.26 4.63 3.09 8.76-1.72 10.47-5.66a89.68 89.68 0 01.18-11.5z"/><path class="cls-7" d="M256.76 81.83c-2.52 7.65-9.53 10.29-13.39 11.58s-8.5.77-11.07-1.8-4.89-14.16-3.35-24.2 9.27-16 18.28-14.16 16.48 7.46 9.53 28.58z"/><path d="M243 93.52c-3.77 1.13-8.18.58-10.67-1.91s-4.9-14.16-3.36-24.2c1.38-8.95 7.69-14.64 15.42-14.48-9.9 2.68-12.87 5.63-13.7 14.38-1.63 16.82-.69 27.93 12.31 26.21z" fill="#f6cbb9"/><path d="M230 65.46a10.1 10.1 0 01-.42-1.28 15.6 15.6 0 01.11-8.24c1.54-5.23 8.91-9.22 21.51-4s8.61 15.37 8.61 15.37-7.38-6.46-12.3-6.46-11.07 6.77-17.51 4.61z" fill="#423e3c"/><ellipse class="cls-5" cx="93.69" cy="257.19" rx="20.93" ry="36.13" transform="rotate(-89.84 93.685 257.184)"/><path class="cls-6" d="M106.17 244.79a6.88 6.88 0 002.74 5.2c2.8 2.12 11.83 5.51 9.44 8.62.43 1.72-5.43 1.59-9.39-.44s-5.92-4.8-7.38-4.69-2 .16-2.7-1 .75-9.12.75-9.12 5.75 2.52 6.54 1.43z"/><rect class="cls-2" x="74.95" y="36.3" width="81.01" height="58.99" rx="2.98" ry="2.98"/><rect class="cls-3" x="76.13" y="37.49" width="78.65" height="56.62" rx="1.91" ry="1.91"/><path class="cls-16" d="M87.64 81.41l20.97-16.77M122.3 70.42l-13.69-5.78M141.67 52.45L122.3 70.42"/><circle class="cls-17" cx="87.64" cy="81.41" r="1.16"/><path class="cls-18" d="M108.61 70.42l-20.97 2.31M122.3 65.32l-13.69 5.1M141.67 59.48l-19.37 5.84"/><circle class="cls-19" cx="87.64" cy="72.73" r="1.16"/><path class="cls-20" d="M87.64 64.17l20.97 12.81M122.3 57.18l-13.69 19.8M141.67 47.91l-19.37 9.27"/><circle class="cls-21" cx="87.64" cy="64.17" r="1.16"/><circle class="cls-17" cx="108.61" cy="64.64" r="1.16"/><circle class="cls-19" cx="108.61" cy="70.42" r="1.16"/><circle class="cls-21" cx="108.61" cy="76.98" r="1.16"/><circle class="cls-17" cx="122.3" cy="70.42" r="1.16"/><circle class="cls-19" cx="122.3" cy="65.32" r="1.16"/><circle class="cls-21" cx="122.3" cy="57.18" r="1.16"/><circle class="cls-19" cx="141.67" cy="59.48" r="1.16"/><circle class="cls-21" cx="141.67" cy="47.91" r="1.16"/><circle class="cls-17" cx="141.67" cy="52.45" r="1.16"/><path class="cls-13" d="M111.8 159.67c0 1.31-.44 18.36-1.31 36.29s-1.75 24.92-1.75 24.92-1.75 21-2.62 24-4.81 1.75-6.12 0c-.88-2.62 1.31-25.79-.88-40.66s-5.68-27.54-6.56-33.66 19.24-10.89 19.24-10.89z"/><path class="cls-6" d="M81.2 248s-.88 3.93 3.49 7.87 8.75 5.68 9.62 8.3-6.12 3.94-10.93.88-6.56-7-7.87-7 0 .44-1.31 0c0 0-2-.58-2.48-2-.14-1.89 1.46-8.74 1.46-8.74s7.73 1.11 8.02.69z"/><path class="cls-13" d="M110.49 166.23c-.31 1.13-2 9.73-12.43 15.59-8.79 4.56-9.39 12.47-10.74 19.21-1 5.05-9.51 27.59-6.27 48.12.23 1.44-1.22 7.22-8.06.71-.65-18.88-1-80.09.33-87.9s38.15.69 37.17 4.27z"/><path class="cls-9" d="M72.45 159.23s-4.81 11.37-3.06 23.17.44 18.37.44 18.37 12.24 7.87 22.3 3.06 19.23-5.69 20.55-10.5c1.31-9.61 2.62-29.73-2.19-36.72s-5.68 10.49-38.04 2.62z"/><path class="cls-12" d="M112.68 193.33c-.67 2.45-3.4 3.88-7.23 5.34 4.17-9.61 2.36-29-.88-39.91 5.85-2.65 3.33-5.92 5.92-2.15 4.8 7 3.51 27.1 2.19 36.72z"/><path class="cls-13" d="M109.32 103.12a15.67 15.67 0 018.46 8.46c2.62 6.41-.3 18.94-.3 18.94s3.79-8.74 9.33-13.11 6.12-6.12 6.12-6.12 0-4.67 1.46-6.12c.87.29 1.17 4.37 1.17 4.37s3.79-3.79 6.41-3.79c2.33.58-.29 6.7-2.62 8.74a8.78 8.78 0 01-5.25 2s-8.16 12.54-9.91 15.74-7.29 6.12-10.2 6.41-6.99-25.31-4.67-35.52z"/><path d="M86.67 100.1s-15.67 10.42-17.26 14S66.93 128 72 133.44c12 12.81-5.25 19.05-1.75 37 1 4.89 15.75 7.46 23.89 6.16s18.08-5.31 18.08-14.75-6.52-18.25 1.78-29.72c5.68-7.87-2.19-14.87-1.6-25.19.19-3.35-5.54-5.53-5.54-5.53s-5.86-4.24-20.19-1.31z" fill="#f5f5f6"/><path d="M114 132.12c-8.28 11.49-1.73 20.3-1.73 29.73a12.07 12.07 0 01-5.4 10c-1.78-7.73-6.78-30.77-4.78-36.51 2.41-6.91 8.69-7.05 5.79-16.62-1.86-6.16 2.23-12.63-1.81-17.79 1.14.49 6.51 2.81 6.33 6-.58 10.33 7.28 17.33 1.6 25.19z" fill="#e1e0e0"/><path d="M96.5 109s-.88 12.68.87 19.24c1.75 1.31 3.94-1.31 4.38-3.06l.43-2.19s5.69 3.5 5.69 1.32S98.69 109 98.69 109z" fill="#3b6fb6"/><path class="cls-13" d="M69.41 114.1s-6.14 8.41.42 17.15 15.74 14.43 18.8 15.3 19.24-1.74 24.05-7.87c.87.44 4.37-.87 4.8-2.62s-3.49-3.93-6.12-3.06a5.87 5.87 0 00-3.49 3.06s-13.56 1.31-16.62 1.31S79.89 125.13 79 121.2s-5.19-8.51-9.59-7.1z"/><path d="M100 98.48a1.36 1.36 0 000 .49c.13 1.12.59 4 .66 5.2s-1.31 3.1-4.4 2.93-8.3-1.63-9.93-5.37a83.34 83.34 0 00-.16-10.91z" fill="#c78b70"/><path class="cls-13" d="M82.11 90.26c2.39 7.26 9 9.76 12.7 11s8 .74 10.5-1.71 4.64-13.43 3.17-23-8.79-15.11-17.34-13.4-15.62 7.08-9.03 27.11z"/><path d="M87.76 71.35a12.05 12.05 0 008.3 6.56c6.12 1.31 10.93.44 13.56 4.37-.44-4.37.87-15.3-9.19-19.23s-14.86 1.31-14.86 1.31-7.43 1.31-7.87 7.43S76.39 84.47 79.45 91s.44 10-1.75 11.37c0 1.31 6.56 6.12 10.93 1.75s2.19-14.87.87-17.49-1.74-15.28-1.74-15.28z" fill="#9a6247"/><path d="M175.48 147.49h43.8a1.05 1.05 0 011.05 1.05v1h-44.85v-2.08.03z" transform="rotate(-5.24 197.746 148.437)" fill="#c5d1d5"/><path d="M199.2 149.46l-43.12 4a2.51 2.51 0 01-2.47-1.4L141 125.78a2.49 2.49 0 012-3.56l43.12-4a2.49 2.49 0 012.46 1.4l12.6 26.24a2.48 2.48 0 01-1.98 3.6z" fill="#b8c6cc"/><path class="cls-29" d="M198 149.52l-42.91 3.93a2.59 2.59 0 01-2.57-1.45L140 126a2.59 2.59 0 012.09-3.7l42.91-3.98a2.59 2.59 0 012.57 1.46l12.5 26a2.59 2.59 0 01-2.07 3.74z"/><circle class="cls-7" cx="6.07" cy="110.84" r="6.07"/><circle class="cls-29" cx="152.67" cy="194.48" r="1.39"/><circle class="cls-7" cx="312.1" cy="21.62" r="11.86"/><circle class="cls-9" cx="303.2" cy="223.3" r="3.04"/><path class="cls-11" transform="rotate(16.38 28.53 178.762)" d="M18.77 169h19.5v19.5h-19.5z"/><path class="cls-29" transform="rotate(-33.15 342.102 188.668)" d="M335.98 182.52h12.31v12.31h-12.31z"/><path class="cls-8" transform="rotate(-109.72 118.03 5.243)" d="M113.93 1.14h8.21v8.21h-8.21z"/><path class="cls-7" d="M49.19 134.56l1.18-1.18a.16.16 0 10-.22-.22L49 134.34l-1.18-1.18a.17.17 0 00-.23 0 .16.16 0 000 .22l1.19 1.18-1.19 1.18a.16.16 0 000 .22.17.17 0 00.23 0l1.18-1.18 1.15 1.22a.16.16 0 10.22-.22z"/><path class="cls-12" d="M211 17.44l.2-1.26a.11.11 0 00-.1-.13.12.12 0 00-.14.09l-.2 1.26-1.26-.2a.12.12 0 00-.13.1.12.12 0 00.1.14l1.26.2-.21 1.26a.13.13 0 00.1.14.12.12 0 00.14-.1l.2-1.26 1.26.2a.12.12 0 000-.24zM189.83 220.33l2.26-1.56a.26.26 0 00.07-.36.26.26 0 00-.36-.07l-2.27 1.57-1.53-2.27a.26.26 0 10-.42.29l1.56 2.27-2.27 1.56a.27.27 0 00-.06.36.26.26 0 00.36.07l2.26-1.57 1.57 2.27a.27.27 0 00.36.06.25.25 0 00.06-.35z"/></g></g></g></svg>