<svg xmlns="http://www.w3.org/2000/svg" viewBox="0 0 350.66 283.05"><defs><style>.cls-1{isolation:isolate;}.cls-2{fill:#f4f4f4;}.cls-3{fill:#fff;}.cls-4{fill:#e0e0e0;}.cls-5{fill:#5b5d60;opacity:0.16;mix-blend-mode:multiply;}.cls-6{fill:#979ca2;}.cls-7{fill:#f5bd9e;}.cls-8{fill:#004053;}.cls-9{fill:#2c55a2;}.cls-10{fill:#133944;}.cls-11{fill:#386ab2;}.cls-12{fill:#274d8c;}.cls-13{fill:#e3a686;}.cls-14{fill:#f6cbb9;}.cls-15{fill:#423e3c;}.cls-16,.cls-18,.cls-20{fill:none;stroke-miterlimit:10;}.cls-16{stroke:#e0e0e0;}.cls-17{fill:#c1bebf;}.cls-18{stroke:#c9e2f7;}.cls-19{fill:#9ac4e1;}.cls-20{stroke:#d9e8c4;}.cls-21{fill:#bdd99b;}.cls-22{fill:#f5f5f6;}.cls-23{fill:#e1e0e0;}.cls-24{fill:#3b6fb6;}.cls-25{fill:#c78b70;}.cls-26{fill:#9a6247;}.cls-27{fill:#c5d1d5;}.cls-28{fill:#b8c6cc;}.cls-29{fill:#dee2e4;}</style></defs><title>il1_sg</title><g class="cls-1"><g id="Warstwa_2" data-name="Warstwa 2"><g id="Warstwa_1-2" data-name="Warstwa 1"><rect class="cls-2" x="173.46" y="53.14" width="105.15" height="76.56" rx="2.98" ry="2.98"/><rect class="cls-3" x="174.99" y="54.68" width="102.08" height="73.48" rx="1.91" ry="1.91"/><rect class="cls-4" x="181.86" y="60.84" width="58.08" height="2.56"/><rect class="cls-4" x="179.12" y="60.84" width="1.37" height="2.56"/><rect class="cls-4" x="187.34" y="66.32" width="71.6" height="2.56"/><rect class="cls-4" x="179.12" y="66.32" width="1.37" height="2.56"/><rect class="cls-4" x="187.34" y="71.8" width="13.97" height="2.56"/><rect class="cls-4" x="179.12" y="71.8" width="1.37" height="2.56"/><rect class="cls-4" x="187.34" y="77.28" width="80.98" height="2.56"/><rect class="cls-4" x="179.12" y="77.28" width="1.37" height="2.56"/><rect class="cls-4" x="181.86" y="82.76" width="40.73" height="2.56"/><rect class="cls-4" x="179.12" y="82.76" width="1.37" height="2.56"/><rect class="cls-4" x="187.34" y="88.24" width="10.96" height="2.56"/><rect class="cls-4" x="179.12" y="88.24" width="1.37" height="2.56"/><rect class="cls-4" x="192.82" y="93.72" width="15.34" height="2.56"/><rect class="cls-4" x="179.12" y="93.72" width="1.37" height="2.56"/><rect class="cls-4" x="192.82" y="99.2" width="58.08" height="2.56"/><rect class="cls-4" x="179.12" y="99.2" width="1.37" height="2.56"/><rect class="cls-4" x="187.34" y="104.68" width="30.59" height="2.56"/><rect class="cls-4" x="179.12" y="104.68" width="1.37" height="2.56"/><rect class="cls-4" x="192.82" y="110.16" width="75.5" height="2.56"/><rect class="cls-4" x="179.12" y="110.16" width="1.37" height="2.56"/><rect class="cls-4" x="187.34" y="115.64" width="3.22" height="2.56"/><rect class="cls-4" x="179.12" y="115.64" width="1.37" height="2.56"/><rect class="cls-4" x="181.86" y="121.12" width="67.05" height="2.56"/><rect class="cls-4" x="179.12" y="121.12" width="1.37" height="2.56"/><rect class="cls-2" x="104.64" y="118.39" width="41.89" height="30.51" rx="2.98" ry="2.98"/><rect class="cls-3" x="105.25" y="119.01" width="40.67" height="29.28" rx="1.91" ry="1.91"/><rect class="cls-4" x="107.99" y="121.46" width="23.14" height="1.02"/><rect class="cls-4" x="106.89" y="121.46" width="0.55" height="1.02"/><rect class="cls-4" x="110.17" y="123.64" width="28.53" height="1.02"/><rect class="cls-4" x="106.89" y="123.64" width="0.55" height="1.02"/><rect class="cls-4" x="110.17" y="125.83" width="5.57" height="1.02"/><rect class="cls-4" x="106.89" y="125.83" width="0.55" height="1.02"/><rect class="cls-4" x="110.17" y="128.01" width="32.27" height="1.02"/><rect class="cls-4" x="106.89" y="128.01" width="0.55" height="1.02"/><rect class="cls-4" x="107.99" y="130.19" width="16.23" height="1.02"/><rect class="cls-4" x="106.89" y="130.19" width="0.55" height="1.02"/><rect class="cls-4" x="110.17" y="132.38" width="4.37" height="1.02"/><rect class="cls-4" x="106.89" y="132.38" width="0.55" height="1.02"/><rect class="cls-4" x="112.35" y="134.56" width="6.11" height="1.02"/><rect class="cls-4" x="106.89" y="134.56" width="0.55" height="1.02"/><rect class="cls-4" x="112.35" y="136.74" width="23.14" height="1.02"/><rect class="cls-4" x="106.89" y="136.74" width="0.55" height="1.02"/><rect class="cls-4" x="110.17" y="138.93" width="12.19" height="1.02"/><rect class="cls-4" x="106.89" y="138.93" width="0.55" height="1.02"/><rect class="cls-4" x="112.35" y="141.11" width="30.08" height="1.02"/><rect class="cls-4" x="106.89" y="141.11" width="0.55" height="1.02"/><rect class="cls-4" x="110.17" y="143.29" width="1.28" height="1.02"/><rect class="cls-4" x="106.89" y="143.29" width="0.55" height="1.02"/><rect class="cls-4" x="107.99" y="145.48" width="26.72" height="1.02"/><rect class="cls-4" x="106.89" y="145.48" width="0.55" height="1.02"/><ellipse class="cls-5" cx="241.65" cy="258.99" rx="24.06" ry="41.54" transform="matrix(0, -1, 1, 0, -18.02, 499.9)"/><path class="cls-6" d="M252.9,243.91a11.23,11.23,0,0,1-3.35,7.72c-3.61,3.86-5.92,8.24-4.12,11.59s9.78,2.31,12.87-.26,2.58-5.15,5.41-8.75,3.35-5.67,2.32-9.53S257.53,241.85,252.9,243.91Z"/><path class="cls-7" d="M191.42,143.43s2.89,4.72,1.24,6.39-6.83,1.82-8.69,1.13-4.49-2.54-4.82-5.1,2.28-4.87,4.65-5.07,1.29,2.74,1.29,2.74S189.43,141.72,191.42,143.43Z"/><path class="cls-6" d="M225.86,240.68a10.84,10.84,0,0,1-4.38,6.69c-3.86,2.84-5.92,5.67-5.4,10.05s7.72,3.86,11.33,2.06,2.83-3.61,5.4-6.44,4.38-3.09,4.89-6.18-.25-6.44-1.8-7S231,237.08,225.86,240.68Z"/><path class="cls-8" d="M223.8,157.78s.86,71.57,1.89,84.27c.34,3.09,7.9,6.18,11,1.72,3.09-5.84,1.21-65.74,5-76.72C240.62,159.15,227.58,156.4,223.8,157.78Z"/><path class="cls-9" d="M225,100.58s-5.57,14.56-11,29.05C209.36,142.12,189.47,141,189.47,141a84.67,84.67,0,0,1,3.65,9.87s12.4.94,22.88-5.82c6.19-4,9.91-16.35,9.22-17C223.38,126.17,227.07,100.81,225,100.58Z"/><path class="cls-10" d="M224.49,160.52c.32,1.2,4.46,18.35,15.45,24.53,9.26,4.8,10.64,9.46,11.32,16.67s.69,42.53,1.38,43.9,6.52,6.87,13.73,0c.69-19.91,1-80-.34-88.19S223.46,156.75,224.49,160.52Z"/><path class="cls-7" d="M269.89,163.57a50,50,0,0,0-.86,7c0,2.58,2.58.17,2.58.17s.69,6.7,2.06,7.73,4.63-1.2,5.32-6.53-1-11.32-3.43-12.53S269.89,163.57,269.89,163.57Z"/><path class="cls-9" d="M252,92.21s16.48,11,18.2,14.76,2.4,14.42-.69,21.63-1,33.3-2.06,38.45-14.76,7.2-23.34,5.83-20.22-2.8-20.22-12.75.31-32.91-.38-37.37-.37-14.59,1.53-22.18C225.85,97.15,236.06,91.59,252,92.21Z"/><path class="cls-11" d="M250.78,173.27a37,37,0,0,1-6.72-.39c-8.58-1.37-20.22-2.79-20.22-12.75s.31-32.91-.38-37.37-.37-14.59,1.52-22.18c.85-3.34,10.54-8.69,25.74-8.4-13.74.3-22.41,5.24-23.21,8.4-1.89,7.59-2.23,17.71-1.54,22.18s.38,27.41.38,37.37,11.64,11.38,20.22,12.75A38,38,0,0,0,250.78,173.27Z"/><path class="cls-12" d="M269.46,128.6c-3.09,7.2-1,33.31-2.06,38.44-.57,2.87-5.08,4.79-10.45,5.68,3.45-15.28,8.88-25.89,3.45-50.78-3.19-14.64,3.91-9.35,1.53-12.23,3-.4,6.5-6.52,8.22-2.75S272.54,121.39,269.46,128.6Z"/><path class="cls-9" d="M267.06,103.54s11.32,8.58,12.35,45.65c0,21.63-.34,14.64-.34,14.64s-6.52,6.18-9.95-.34c0-7.9,1.37-19.79-2.06-33.52s-6.18-15.1-6.18-15.1S258.82,104.57,267.06,103.54Z"/><path class="cls-13" d="M237.88,90.49a2,2,0,0,1,0,.52c-.14,1.19-.63,4.23-.7,5.49s1.37,3.26,4.63,3.09,8.76-1.72,10.47-5.66a89.68,89.68,0,0,1,.18-11.5Z"/><path class="cls-7" d="M256.76,81.83c-2.52,7.65-9.53,10.29-13.39,11.58s-8.5.77-11.07-1.8-4.89-14.16-3.35-24.2,9.27-16,18.28-14.16S263.71,60.71,256.76,81.83Z"/><path class="cls-14" d="M243,93.52c-3.77,1.13-8.18.58-10.67-1.91s-4.9-14.16-3.36-24.2c1.38-8.95,7.69-14.64,15.42-14.48-9.9,2.68-12.87,5.63-13.7,14.38C229.06,84.13,230,95.24,243,93.52Z"/><path class="cls-15" d="M230,65.46a10.1,10.1,0,0,1-.42-1.28,15.6,15.6,0,0,1,.11-8.24c1.54-5.23,8.91-9.22,21.51-4s8.61,15.37,8.61,15.37-7.38-6.46-12.3-6.46S236.44,67.62,230,65.46Z"/><ellipse class="cls-5" cx="93.69" cy="257.19" rx="20.93" ry="36.13" transform="translate(-163.76 350.15) rotate(-89.84)"/><path class="cls-6" d="M106.17,244.79a6.88,6.88,0,0,0,2.74,5.2c2.8,2.12,11.83,5.51,9.44,8.62.43,1.72-5.43,1.59-9.39-.44s-5.92-4.8-7.38-4.69-2,.16-2.7-1,.75-9.12.75-9.12S105.38,245.88,106.17,244.79Z"/><rect class="cls-2" x="74.95" y="36.3" width="81.01" height="58.99" rx="2.98" ry="2.98"/><rect class="cls-3" x="76.13" y="37.49" width="78.65" height="56.62" rx="1.91" ry="1.91"/><line class="cls-16" x1="87.64" y1="81.41" x2="108.61" y2="64.64"/><line class="cls-16" x1="122.3" y1="70.42" x2="108.61" y2="64.64"/><line class="cls-16" x1="141.67" y1="52.45" x2="122.3" y2="70.42"/><circle class="cls-17" cx="87.64" cy="81.41" r="1.16"/><line class="cls-18" x1="108.61" y1="70.42" x2="87.64" y2="72.73"/><line class="cls-18" x1="122.3" y1="65.32" x2="108.61" y2="70.42"/><line class="cls-18" x1="141.67" y1="59.48" x2="122.3" y2="65.32"/><circle class="cls-19" cx="87.64" cy="72.73" r="1.16"/><line class="cls-20" x1="87.64" y1="64.17" x2="108.61" y2="76.98"/><line class="cls-20" x1="122.3" y1="57.18" x2="108.61" y2="76.98"/><line class="cls-20" x1="141.67" y1="47.91" x2="122.3" y2="57.18"/><circle class="cls-21" cx="87.64" cy="64.17" r="1.16"/><circle class="cls-17" cx="108.61" cy="64.64" r="1.16"/><circle class="cls-19" cx="108.61" cy="70.42" r="1.16"/><circle class="cls-21" cx="108.61" cy="76.98" r="1.16"/><circle class="cls-17" cx="122.3" cy="70.42" r="1.16"/><circle class="cls-19" cx="122.3" cy="65.32" r="1.16"/><circle class="cls-21" cx="122.3" cy="57.18" r="1.16"/><circle class="cls-19" cx="141.67" cy="59.48" r="1.16"/><circle class="cls-21" cx="141.67" cy="47.91" r="1.16"/><circle class="cls-17" cx="141.67" cy="52.45" r="1.16"/><path class="cls-13" d="M111.8,159.67c0,1.31-.44,18.36-1.31,36.29s-1.75,24.92-1.75,24.92-1.75,21-2.62,24-4.81,1.75-6.12,0c-.88-2.62,1.31-25.79-.88-40.66s-5.68-27.54-6.56-33.66S111.8,159.67,111.8,159.67Z"/><path class="cls-6" d="M81.2,248s-.88,3.93,3.49,7.87,8.75,5.68,9.62,8.3-6.12,3.94-10.93.88-6.56-7-7.87-7,0,.44-1.31,0c0,0-2-.58-2.48-2-.14-1.89,1.46-8.74,1.46-8.74S80.91,248.42,81.2,248Z"/><path class="cls-13" d="M110.49,166.23c-.31,1.13-2,9.73-12.43,15.59-8.79,4.56-9.39,12.47-10.74,19.21-1,5.05-9.51,27.59-6.27,48.12.23,1.44-1.22,7.22-8.06.71-.65-18.88-1-80.09.33-87.9S111.47,162.65,110.49,166.23Z"/><path class="cls-9" d="M72.45,159.23s-4.81,11.37-3.06,23.17.44,18.37.44,18.37,12.24,7.87,22.3,3.06,19.23-5.69,20.55-10.5c1.31-9.61,2.62-29.73-2.19-36.72S104.81,167.1,72.45,159.23Z"/><path class="cls-12" d="M112.68,193.33c-.67,2.45-3.4,3.88-7.23,5.34,4.17-9.61,2.36-29-.88-39.91,5.85-2.65,3.33-5.92,5.92-2.15C115.29,163.61,114,183.71,112.68,193.33Z"/><path class="cls-13" d="M109.32,103.12a15.67,15.67,0,0,1,8.46,8.46c2.62,6.41-.3,18.94-.3,18.94s3.79-8.74,9.33-13.11,6.12-6.12,6.12-6.12,0-4.67,1.46-6.12c.87.29,1.17,4.37,1.17,4.37s3.79-3.79,6.41-3.79c2.33.58-.29,6.7-2.62,8.74a8.78,8.78,0,0,1-5.25,2s-8.16,12.54-9.91,15.74-7.29,6.12-10.2,6.41S107,113.33,109.32,103.12Z"/><path class="cls-22" d="M86.67,100.1S71,110.52,69.41,114.1,66.93,128,72,133.44c12,12.81-5.25,19.05-1.75,37,1,4.89,15.75,7.46,23.89,6.16s18.08-5.31,18.08-14.75S105.7,143.6,114,132.13c5.68-7.87-2.19-14.87-1.6-25.19.19-3.35-5.54-5.53-5.54-5.53S101,97.17,86.67,100.1Z"/><path class="cls-23" d="M114,132.12c-8.28,11.49-1.73,20.3-1.73,29.73a12.07,12.07,0,0,1-5.4,10c-1.78-7.73-6.78-30.77-4.78-36.51,2.41-6.91,8.69-7.05,5.79-16.62-1.86-6.16,2.23-12.63-1.81-17.79,1.14.49,6.51,2.81,6.33,6C111.82,117.26,119.68,124.26,114,132.12Z"/><path class="cls-24" d="M96.5,109s-.88,12.68.87,19.24c1.75,1.31,3.94-1.31,4.38-3.06l.43-2.19s5.69,3.5,5.69,1.32S98.69,109,98.69,109Z"/><path class="cls-13" d="M69.41,114.1s-6.14,8.41.42,17.15,15.74,14.43,18.8,15.3,19.24-1.74,24.05-7.87c.87.44,4.37-.87,4.8-2.62s-3.49-3.93-6.12-3.06a5.87,5.87,0,0,0-3.49,3.06s-13.56,1.31-16.62,1.31S79.89,125.13,79,121.2,73.81,112.69,69.41,114.1Z"/><path class="cls-25" d="M100,98.48a1.36,1.36,0,0,0,0,.49c.13,1.12.59,4,.66,5.2s-1.31,3.1-4.4,2.93-8.3-1.63-9.93-5.37a83.34,83.34,0,0,0-.16-10.91Z"/><path class="cls-13" d="M82.11,90.26c2.39,7.26,9,9.76,12.7,11s8,.74,10.5-1.71,4.64-13.43,3.17-23S99.69,61.44,91.14,63.15,75.52,70.23,82.11,90.26Z"/><path class="cls-26" d="M87.76,71.35a12.05,12.05,0,0,0,8.3,6.56c6.12,1.31,10.93.44,13.56,4.37-.44-4.37.87-15.3-9.19-19.23s-14.86,1.31-14.86,1.31-7.43,1.31-7.87,7.43S76.39,84.47,79.45,91s.44,10-1.75,11.37c0,1.31,6.56,6.12,10.93,1.75s2.19-14.87.87-17.49S87.76,71.35,87.76,71.35Z"/><path class="cls-27" d="M175.48,147.49h43.8a1.05,1.05,0,0,1,1.05,1.05v1a0,0,0,0,1,0,0H175.48a0,0,0,0,1,0,0v-2.08A0,0,0,0,1,175.48,147.49Z" transform="translate(-12.73 18.68) rotate(-5.24)"/><path class="cls-28" d="M199.2,149.46l-43.12,4a2.51,2.51,0,0,1-2.47-1.4L141,125.78a2.49,2.49,0,0,1,2-3.56l43.12-4a2.49,2.49,0,0,1,2.46,1.4l12.6,26.24A2.48,2.48,0,0,1,199.2,149.46Z"/><path class="cls-29" d="M198,149.52l-42.91,3.93a2.59,2.59,0,0,1-2.57-1.45L140,126a2.59,2.59,0,0,1,2.09-3.7L185,118.32a2.59,2.59,0,0,1,2.57,1.46l12.5,26A2.59,2.59,0,0,1,198,149.52Z"/><circle class="cls-7" cx="6.07" cy="110.84" r="6.07"/><circle class="cls-29" cx="152.67" cy="194.48" r="1.39"/><circle class="cls-7" cx="312.1" cy="21.62" r="11.86"/><circle class="cls-9" cx="303.2" cy="223.3" r="3.04"/><rect class="cls-11" x="18.77" y="169" width="19.5" height="19.5" transform="translate(51.57 -0.79) rotate(16.38)"/><rect class="cls-29" x="335.98" y="182.52" width="12.31" height="12.31" transform="translate(-47.49 217.78) rotate(-33.15)"/><rect class="cls-8" x="113.93" y="1.14" width="8.21" height="8.21" transform="translate(152.92 118.12) rotate(-109.72)"/><path class="cls-7" d="M49.19,134.56l1.18-1.18a.16.16,0,1,0-.22-.22L49,134.34l-1.18-1.18a.17.17,0,0,0-.23,0,.16.16,0,0,0,0,.22l1.19,1.18-1.19,1.18a.16.16,0,0,0,0,.22.17.17,0,0,0,.23,0L49,134.78,50.15,136a.16.16,0,1,0,.22-.22Z"/><path class="cls-12" d="M211,17.44l.2-1.26a.11.11,0,0,0-.1-.13.12.12,0,0,0-.14.09l-.2,1.26-1.26-.2a.12.12,0,0,0-.13.1.12.12,0,0,0,.1.14l1.26.2-.21,1.26a.13.13,0,0,0,.1.14.12.12,0,0,0,.14-.1l.2-1.26,1.26.2a.12.12,0,0,0,0-.24Z"/><path class="cls-12" d="M189.83,220.33l2.26-1.56a.26.26,0,0,0,.07-.36.26.26,0,0,0-.36-.07l-2.27,1.57L188,217.64a.26.26,0,1,0-.42.29l1.56,2.27-2.27,1.56a.27.27,0,0,0-.06.36.26.26,0,0,0,.36.07l2.26-1.57,1.57,2.27a.27.27,0,0,0,.36.06.25.25,0,0,0,.06-.35Z"/></g></g></g></svg>